<?xml version="1.0" encoding="UTF-8"?>
<svg width="650px" height="525px" viewBox="0 0 650 525" version="1.1" xmlns="http://www.w3.org/2000/svg" xmlns:xlink="http://www.w3.org/1999/xlink">
    <!-- Generator: Sketch 51.3 (57544) - http://www.bohemiancoding.com/sketch -->
    <title>tree-pattern</title>
    <desc>Created with Sketch.</desc>
    <defs></defs>
    <g id="tree-pattern" stroke="none" stroke-width="1" fill="none" fill-rule="evenodd">
        <rect fill="#0E7B38" x="0" y="0" width="650" height="525"></rect>
        <polyline id="partio_ikonit-kuusi" fill="#0D7334" points="80 -56.3156556 80 -81 26.3670089 -14.4720234 46.4615149 -14.4720234 21.6832797 16.2637653 41.7786846 16.2637653 17 46.999554 80 47 80 31.5801456 49.3312597 31.5796996 74.1094948 0.843910938 54.2100506 0.843464929 54.0140899 0.843464929 78.793224 -29.8918778 58.8933303 -29.8923238 58.6982685 -29.8923238 80 -56.3156556"></polyline>
        <polyline id="partio_ikonit-kuusi" fill="#0D7334" points="80 465.684344 80 441 26.3670089 507.527977 46.4615149 507.527977 21.6832797 538.263765 41.7786846 538.263765 17 568.999554 80 569 80 553.580146 49.3312597 553.5797 74.1094948 522.843911 54.2100506 522.843465 54.0140899 522.843465 78.793224 492.108122 58.8933303 492.107676 58.6982685 492.107676 80 465.684344"></polyline>
        <polyline id="partio_ikonit-kuusi" fill="#0D7334" points="36 241.684344 36 217 -17.6329911 283.527977 2.46151486 283.527977 -22.3167203 314.263765 -2.22131539 314.263765 -27 344.999554 36 345 36 329.580146 5.33125968 329.5797 30.1094948 298.843911 10.2100506 298.843465 10.0140899 298.843465 34.793224 268.108122 14.8933303 268.107676 14.6982685 268.107676 36 241.684344"></polyline>
        <polyline id="partio_ikonit-kuusi" fill="#0D7334" points="684 241.684344 684 217 630.367009 283.527977 650.461515 283.527977 625.68328 314.263765 645.778685 314.263765 621 344.999554 684 345 684 329.580146 653.33126 329.5797 678.109495 298.843911 658.210051 298.843465 658.01409 298.843465 682.793224 268.108122 662.89333 268.107676 662.698269 268.107676 684 241.684344"></polyline>
        <polyline id="partio_ikonit-kuusi" fill="#0D7334" points="63 91.6843444 63 67 9.36700887 133.527977 29.4615149 133.527977 4.68327971 164.263765 24.7786846 164.263765 0 194.999554 63 195 63 179.580146 32.3312597 179.5797 57.1094948 148.843911 37.2100506 148.843465 37.0140899 148.843465 61.793224 118.108122 41.8933303 118.107676 41.6982685 118.107676 63 91.6843444"></polyline>
        <polyline id="partio_ikonit-kuusi" fill="#0D7334" points="332 27.6843444 332 3 278.367009 69.5279766 298.461515 69.5279766 273.68328 100.263765 293.778685 100.263765 269 130.999554 332 131 332 115.580146 301.33126 115.5797 326.109495 84.8439109 306.210051 84.8434649 306.01409 84.8434649 330.793224 54.1081222 310.89333 54.1076762 310.698269 54.1076762 332 27.6843444"></polyline>
        <polyline id="partio_ikonit-kuusi" fill="#0D7334" points="408 71.6843444 408 47 354.367009 113.527977 374.461515 113.527977 349.68328 144.263765 369.778685 144.263765 345 174.999554 408 175 408 159.580146 377.33126 159.5797 402.109495 128.843911 382.210051 128.843465 382.01409 128.843465 406.793224 98.1081222 386.89333 98.1076762 386.698269 98.1076762 408 71.6843444"></polyline>
        <polyline id="partio_ikonit-kuusi" fill="#0D7334" points="150 65.6843444 150 41 96.3670089 107.527977 116.461515 107.527977 91.6832797 138.263765 111.778685 138.263765 87 168.999554 150 169 150 153.580146 119.33126 153.5797 144.109495 122.843911 124.210051 122.843465 124.01409 122.843465 148.793224 92.1081222 128.89333 92.1076762 128.698269 92.1076762 150 65.6843444"></polyline>
        <polyline id="partio_ikonit-kuusi" fill="#0D7334" points="244 -28.3156556 244 -53 190.367009 13.5279766 210.461515 13.5279766 185.68328 44.2637653 205.778685 44.2637653 181 74.999554 244 75 244 59.5801456 213.33126 59.5796996 238.109495 28.8439109 218.210051 28.8434649 218.01409 28.8434649 242.793224 -1.89187777 222.89333 -1.89232377 222.698269 -1.89232377 244 -28.3156556"></polyline>
        <polyline id="partio_ikonit-kuusi" fill="#0D7334" points="244 496.684344 244 472 190.367009 538.527977 210.461515 538.527977 185.68328 569.263765 205.778685 569.263765 181 599.999554 244 600 244 584.580146 213.33126 584.5797 238.109495 553.843911 218.210051 553.843465 218.01409 553.843465 242.793224 523.108122 222.89333 523.107676 222.698269 523.107676 244 496.684344"></polyline>
        <polyline id="partio_ikonit-kuusi" fill="#0D7334" points="242 157.684344 242 133 188.367009 199.527977 208.461515 199.527977 183.68328 230.263765 203.778685 230.263765 179 260.999554 242 261 242 245.580146 211.33126 245.5797 236.109495 214.843911 216.210051 214.843465 216.01409 214.843465 240.793224 184.108122 220.89333 184.107676 220.698269 184.107676 242 157.684344"></polyline>
        <polyline id="partio_ikonit-kuusi" fill="#0D7334" points="423 219.684344 423 195 369.367009 261.527977 389.461515 261.527977 364.68328 292.263765 384.778685 292.263765 360 322.999554 423 323 423 307.580146 392.33126 307.5797 417.109495 276.843911 397.210051 276.843465 397.01409 276.843465 421.793224 246.108122 401.89333 246.107676 401.698269 246.107676 423 219.684344"></polyline>
        <polyline id="partio_ikonit-kuusi" fill="#0D7334" points="441 401.684344 441 377 387.367009 443.527977 407.461515 443.527977 382.68328 474.263765 402.778685 474.263765 378 504.999554 441 505 441 489.580146 410.33126 489.5797 435.109495 458.843911 415.210051 458.843465 415.01409 458.843465 439.793224 428.108122 419.89333 428.107676 419.698269 428.107676 441 401.684344"></polyline>
        <polyline id="partio_ikonit-kuusi" fill="#0D7334" points="553 357.684344 553 333 499.367009 399.527977 519.461515 399.527977 494.68328 430.263765 514.778685 430.263765 490 460.999554 553 461 553 445.580146 522.33126 445.5797 547.109495 414.843911 527.210051 414.843465 527.01409 414.843465 551.793224 384.108122 531.89333 384.107676 531.698269 384.107676 553 357.684344"></polyline>
        <polyline id="partio_ikonit-kuusi" fill="#0D7334" points="536 193.684344 536 169 482.367009 235.527977 502.461515 235.527977 477.68328 266.263765 497.778685 266.263765 473 296.999554 536 297 536 281.580146 505.33126 281.5797 530.109495 250.843911 510.210051 250.843465 510.01409 250.843465 534.793224 220.108122 514.89333 220.107676 514.698269 220.107676 536 193.684344"></polyline>
        <polyline id="partio_ikonit-kuusi" fill="#0D7334" points="632 76.6843444 632 52 578.367009 118.527977 598.461515 118.527977 573.68328 149.263765 593.778685 149.263765 569 179.999554 632 180 632 164.580146 601.33126 164.5797 626.109495 133.843911 606.210051 133.843465 606.01409 133.843465 630.793224 103.108122 610.89333 103.107676 610.698269 103.107676 632 76.6843444"></polyline>
        <polyline id="partio_ikonit-kuusi" fill="#0D7334" points="650 -86.3156556 650 -111 596.367009 -44.4720234 616.461515 -44.4720234 591.68328 -13.7362347 611.778685 -13.7362347 587 16.999554 650 17 650 1.58014565 619.33126 1.57969964 644.109495 -29.1560891 624.210051 -29.1565351 624.01409 -29.1565351 648.793224 -59.8918778 628.89333 -59.8923238 628.698269 -59.8923238 650 -86.3156556"></polyline>
        <polyline id="partio_ikonit-kuusi" fill="#0D7334" points="650 435.684344 650 411 596.367009 477.527977 616.461515 477.527977 591.68328 508.263765 611.778685 508.263765 587 538.999554 650 539 650 523.580146 619.33126 523.5797 644.109495 492.843911 624.210051 492.843465 624.01409 492.843465 648.793224 462.108122 628.89333 462.107676 628.698269 462.107676 650 435.684344"></polyline>
        <polyline id="partio_ikonit-kuusi" fill="#0D7334" points="150 305.684344 150 281 96.3670089 347.527977 116.461515 347.527977 91.6832797 378.263765 111.778685 378.263765 87 408.999554 150 409 150 393.580146 119.33126 393.5797 144.109495 362.843911 124.210051 362.843465 124.01409 362.843465 148.793224 332.108122 128.89333 332.107676 128.698269 332.107676 150 305.684344"></polyline>
        <polyline id="partio_ikonit-kuusi" fill="#0D7334" points="504 27.6843444 504 3 450.367009 69.5279766 470.461515 69.5279766 445.68328 100.263765 465.778685 100.263765 441 130.999554 504 131 504 115.580146 473.33126 115.5797 498.109495 84.8439109 478.210051 84.8434649 478.01409 84.8434649 502.793224 54.1081222 482.89333 54.1076762 482.698269 54.1076762 504 27.6843444"></polyline>
        <polyline id="partio_ikonit-teltta" fill="#0D7334" points="278.758392 339.144133 290.615111 324.074867 279.238218 315 269.50021 327.376816 259.762201 315 248.385309 324.074867 260.241608 339.144133 210 403 228.516783 403 269.50021 350.911449 310.483637 403 329 403 278.758392 339.144133"></polyline>
    </g>
</svg>