<?xml version="1.0" encoding="UTF-8"?>
<svg width="175px" height="85px" viewBox="0 0 175 85" version="1.1" xmlns="http://www.w3.org/2000/svg" xmlns:xlink="http://www.w3.org/1999/xlink">
    <!-- Generator: Sketch 51.3 (57544) - http://www.bohemiancoding.com/sketch -->
    <title>LPK logo</title>
    <desc>Created with Sketch.</desc>
    <defs></defs>
    <g id="Symbols" stroke="none" stroke-width="1" fill="none" fill-rule="evenodd">
        <g id="LPK-logo-inverse-Copy-2" transform="translate(-5.000000, 0.000000)" fill="#FFFFFF">
            <g id="LPK-logo" transform="translate(5.000000, 0.000000)">
                <g id="partio_logo_cmyk" transform="translate(0.375940, 0.375940)">
                    <path d="M5.91668494,25.9585802 L4.03963224,25.9585802 L4.03963224,22.1698239 L5.46529188,22.1698239 C7.65156659,22.1698239 8.43548193,22.6735567 8.43548193,24.0644013 C8.43548193,25.2874678 7.77043738,25.9585802 5.91668494,25.9585802 M7.2238687,19.1729323 L0,19.1729323 L0,35.5263158 L4.03963224,35.5263158 L4.03963224,28.9562688 L7.24756388,28.9562688 C10.978369,28.9562688 12.593985,26.3184463 12.593985,24.01618 C12.593985,21.7864449 10.9305838,19.1729323 7.2238687,19.1729323" id="Fill-1"></path>
                    <path d="M20.846096,29.4356368 L23.2232864,23.0811678 L25.8378797,29.4356368 L20.846096,29.4356368 Z M25.5048835,19.1729323 L20.8220002,19.1729323 L14.2857143,35.5263158 L18.5644989,35.5263158 L19.7763999,32.288314 L27.0260799,32.288314 L28.3572749,35.5263158 L32.7067669,35.5263158 L25.5048835,19.1729323 Z" id="Fill-3"></path>
                    <path d="M42.9712527,25.8871523 L40.8497152,25.8871523 L40.8497152,22.1704018 L42.8772234,22.1704018 C44.3860029,22.1704018 45.1640959,22.7936459 45.1640959,24.0170215 C45.1640959,25.4073659 44.0796239,25.8871523 42.9712527,25.8871523 M46.5310478,27.8772297 C48.3701054,27.0136939 49.2896343,25.6711687 49.2896343,23.8731652 C49.2896343,21.4272111 47.3330399,19.1729323 44.0322174,19.1729323 L36.8421053,19.1729323 L36.8421053,35.5263158 L40.8497152,35.5263158 L40.8497152,28.8842232 L42.0047092,28.8842232 C44.174045,28.8842232 44.8103104,32.0255488 46.5310478,35.5263158 L50.9398496,35.5263158 C48.6764844,30.7308429 48.1812631,28.7164574 46.5310478,27.8772297" id="Fill-5"></path>
                    <polygon id="Fill-7" points="68.6090226 19.1729323 53.0075188 19.1729323 53.0075188 22.1698572 58.8111767 22.1698572 58.8111767 35.5263158 62.8057552 35.5263158 62.8057552 22.1698572 68.6090226 22.1698572"></polygon>
                    <polygon id="Fill-9" points="73.8721805 35.5263158 77.8195489 35.5263158 77.8195489 19.1729323 73.8721805 19.1729323"></polygon>
                    <path d="M92.3992949,32.3208397 C89.3012888,32.3208397 87.2521858,30.3373578 87.2521858,27.3498226 C87.2521858,24.3622875 89.3012888,22.3784084 92.3992949,22.3784084 C95.4731473,22.3784084 97.5218543,24.3622875 97.5218543,27.3498226 C97.5218543,30.3373578 95.4731473,32.3208397 92.3992949,32.3208397 M92.3992949,18.9849624 C86.2753478,18.9849624 83.0827068,23.4058949 83.0827068,27.3498226 C83.0827068,31.5082238 86.4424437,35.7142857 92.3992949,35.7142857 C98.2361696,35.7142857 101.691729,31.5320542 101.691729,27.3498226 C101.691729,23.4301225 98.522846,18.9849624 92.3992949,18.9849624" id="Fill-11"></path>
                    <path d="M42.982759,48.0781586 C43.3737689,48.6554689 43.6230523,48.944124 44.1922883,48.944124 C44.8683046,48.944124 45.1886454,48.4751087 45.2954257,48.1506177 C45.3311485,48.0060933 45.3664831,48.0060933 45.3664831,47.7540615 C45.3664831,47.0322267 44.83297,46.5986533 44.548352,46.4182931 C43.8366129,45.9847197 42.8049213,46.0571788 42.698141,46.0571788 C41.381443,46.0571788 39.4958974,46.3458339 38.3217026,47.861175 C37.5389061,48.8362229 37.502795,49.7021884 37.502795,50.0987446 C37.502795,50.6402192 37.5742407,51.5061846 38.5705978,52.6970347 C38.9623843,53.1660501 39.2112795,53.347198 39.8869074,53.9241145 C41.4886116,55.2236533 42.5203033,55.8367994 43.1959312,56.7027648 C43.6944981,57.3525342 43.7298326,57.9660741 43.7298326,58.2184997 C43.7298326,58.8678753 43.5162721,59.2285958 43.2669887,59.5172509 C42.4488576,60.4198397 40.8125954,60.3832164 40.8125954,60.3832164 C39.8869074,60.3832164 39.1044992,60.094955 38.7841583,59.7342345 C38.4638175,59.4093498 38.4284829,58.9761702 38.3927601,58.9041049 C38.3927601,58.8678753 38.4284829,58.3988599 38.3217026,58.1105986 C38.1791995,57.7490905 37.8588587,57.2084036 37.0407276,57.2084036 C36.5068262,57.2084036 35.9022556,57.569124 35.9022556,58.2547292 C35.9022556,59.8775776 37.3606801,60.9967562 38.7131009,61.3220347 C39.3180597,61.4661654 40.2429711,61.4661654 40.3140285,61.4661654 C41.7017839,61.4661654 43.7655555,61.1775103 45.0461423,59.4447918 C45.5800437,58.6871213 45.8646617,57.7132547 45.8646617,56.9551904 C45.8646617,56.3058148 45.7582697,55.2953249 44.548352,54.1048685 C43.8008901,53.347198 42.4488576,52.4812325 41.6307265,51.8310693 C40.3497514,50.8930385 39.6741234,49.9183844 39.4958974,49.5218281 C39.4244517,49.4497628 39.3180597,49.1244843 39.3180597,48.7995996 C39.3180597,48.2226831 39.6380123,47.8981922 39.8869074,47.6812086 C40.4565317,47.2842585 41.0614905,47.3204881 41.1682708,47.3204881 C41.8800099,47.3204881 42.4488576,47.5729137 42.698141,47.7895035 C42.8759787,47.8981922 42.8402558,47.8981922 42.982759,48.0781586" id="Fill-12"></path>
                    <path d="M56.9636583,48.3499422 C57.3219257,49.1771901 57.6438585,49.6821846 58.502997,49.7175539 C59.2906383,49.7175539 59.7559562,48.9618305 59.8993413,48.6376122 C59.9352853,48.4937772 59.9708385,48.2776317 59.9708385,48.0972484 C60.0067825,46.909234 58.9683149,46.1884869 58.4314998,46.0084967 C58.1091764,45.9008169 57.5723613,45.8646617 57.5364173,45.8646617 C56.3908993,45.8646617 53.8134837,46.333108 51.6291074,49.7537091 C50.9489072,50.8344367 50.8055221,51.2663348 50.5546959,51.8066986 C50.4831987,52.0228441 50.3761482,52.2028344 50.3042603,52.4189799 C49.7674453,53.9677609 49.6240602,55.4803865 49.6240602,55.9845951 C49.6240602,56.4522554 49.6240602,59.081764 51.8439897,60.5578414 C52.4882459,60.9905254 53.0973396,61.2781955 54.4932932,61.2781955 C54.815226,61.2781955 57.1425967,61.2424332 58.8968177,60.0536328 C60.293162,59.081764 60.9022556,57.6760321 60.9022556,57.3164445 C60.9022556,57.0649297 60.7229266,56.7041632 60.4006031,56.7041632 C60.0423357,56.7041632 59.8278441,57.100692 59.6489058,57.4253033 C59.3265823,58.0367986 59.1117,58.2890994 58.7897672,58.6129247 C58.2166175,59.1175262 57.1425967,59.6936523 55.7462524,59.6936523 C54.8511699,59.6936523 54.0635286,59.369434 53.7412051,59.1175262 C53.4192724,58.9009877 53.0973396,58.5771624 52.8105694,58.0367986 C52.416358,57.3529928 52.2018664,56.7041632 52.2018664,55.3715278 C52.2018664,52.2751449 53.1328929,49.9336994 54.1354165,48.745292 C54.994555,47.7734231 55.7106991,47.4853601 56.0685758,47.4853601 C56.7128321,47.4853601 56.9281051,48.2414764 56.9636583,48.3499422" id="Fill-13"></path>
                    <path d="M73.9134996,52.9064112 C73.9134996,54.6484303 73.4799304,57.0808402 72.4336148,58.8232554 C71.8200809,59.8396312 71.4589701,60.0939232 70.9178946,60.2749379 C70.5209484,60.4203042 70.0161021,60.4203042 69.9436437,60.4203042 C69.4021744,60.4203042 68.8610989,60.3105863 68.3196296,60.0566904 C67.2008556,59.4764135 67.0204971,58.5329189 66.9122033,57.588632 C66.8039094,56.93587 66.7676802,56.3187564 66.7676802,55.7016428 C66.7676802,52.9064112 67.2733141,51.0911149 67.7423249,49.8576798 C67.9947481,49.2041256 68.1751066,48.8777446 68.3558588,48.587012 C69.2218159,47.3163442 70.2322961,47.2074185 70.5930131,47.171374 C70.8454362,47.171374 71.8200809,47.1353295 72.5781379,47.8609727 C72.7584964,48.0431757 72.9388549,48.2966755 73.1554426,48.6963338 C73.9855643,50.5104419 73.9134996,52.3617827 73.9134996,52.9064112 M75.789543,47.8245321 C75.428826,47.2442552 75.1401737,46.9895671 74.8156859,46.7360673 C74.2379874,46.2639239 73.444095,45.8646617 72.0366686,45.8646617 C71.5676578,45.8646617 68.8969343,45.9375429 66.9484325,47.9702945 C66.2628339,48.6594971 65.5047769,49.9662095 65.2165184,50.6926449 C64.2418736,52.9428518 64.0977444,55.5198359 64.0977444,56.1005089 C64.0977444,57.0075629 64.2060382,57.5529836 64.3143321,57.9510576 C64.4946906,58.6414485 65.3968769,60.8191703 67.6340311,61.4731206 C68.247565,61.6541353 69.0052282,61.6541353 69.1497513,61.6541353 C69.6912206,61.6541353 72.1449625,61.6172986 74.2017582,59.2946066 C74.4908043,58.931785 74.9598152,58.3507159 75.3567614,57.5161469 C75.8253785,56.6447413 76.6917293,54.2856087 76.6917293,51.672184 C76.6917293,49.7847986 76.2947831,48.6594971 75.789543,47.8245321" id="Fill-14"></path>
                    <path d="M81.4344242,48.0612394 C81.79413,47.628604 82.3698164,47.5932387 82.441679,47.5932387 C83.2337386,47.5932387 83.6656997,48.1335418 83.7375623,48.5296331 C83.8094249,48.7096031 83.77369,48.8168779 83.77369,48.8891802 C83.77369,49.8617258 83.1976109,51.6983635 83.1976109,51.6983635 C82.9816304,52.5624555 82.7656498,53.4265475 82.5139343,54.2910325 C82.0462382,56.0557607 81.8703122,56.767782 81.8703122,57.6680252 C81.8703122,58.9282085 82.3376156,59.758507 82.8771743,60.2630519 C83.8486941,61.1275369 84.8532001,61.2041617 85.2847685,61.2041617 C86.0045728,61.2041617 87.0840829,61.0603428 88.775407,59.4759776 C88.9552599,59.2960076 89.5313389,58.7199462 90.0705049,58.0715825 C90.3948684,57.6750982 90.5389864,57.3155511 90.7549669,57.3155511 C90.8990849,57.3155511 90.9340344,57.4593699 90.9340344,57.4593699 C91.0066824,57.7120353 90.9705548,57.9635219 90.9340344,58.2161872 C90.8990849,58.5761274 90.8990849,59.0075839 90.8990849,59.4040682 C90.8990849,59.6924918 91.2642883,61.1676175 92.7679057,61.276857 C93.0910912,61.299255 95.3969781,61.0603428 96.871929,59.0441281 C97.3757527,58.3600061 97.556391,57.7120353 97.556391,57.4593699 C97.556391,56.955218 97.0521746,56.7756409 96.9084493,56.7756409 C96.4042329,56.7756409 96.2966353,57.4593699 96.2605076,57.5670376 C96.2605076,57.6750982 96.22438,57.7835518 96.188645,57.8916124 C96.0806547,58.1081266 95.6844286,59.1164305 94.7129088,59.4759776 C94.4250656,59.5836453 93.6597091,59.5820735 93.3816832,58.909347 C93.2736929,58.6213163 93.2371726,58.2877037 93.2371726,57.3520952 C93.2371726,55.7311859 93.3816832,55.2274269 93.7052613,53.1027586 C93.8128589,52.310576 93.9577622,51.5180005 94.1014875,50.7262108 C94.3170753,49.6456046 94.5687909,48.6011496 94.8212918,47.5570875 C94.8570267,47.3767245 94.8927617,47.2329056 94.928104,47.0890867 C94.9654097,46.8729655 95.0368796,46.8006631 95.0368796,46.5849348 C95.0368796,46.0446317 94.6414389,45.8646617 94.4250656,45.8646617 C94.2452127,45.8646617 94.1014875,45.8646617 93.9577622,45.9008128 C93.5976637,45.936964 93.2371726,46.0446317 92.9135944,46.0807829 C92.6257512,46.1526923 91.9420746,46.0807829 91.9420746,46.7287537 C91.9420746,47.1613891 91.9420746,52.310576 90.3591335,55.6592764 C89.7107991,57.0275204 88.3045693,59.0016897 86.6961032,59.1093574 C85.7622819,59.1710502 84.6831645,58.7541327 84.4993846,57.5077025 C84.3917871,56.7803563 84.6733472,55.6231253 84.7809447,55.1547316 C84.9611903,54.3987002 85.1410432,53.678427 85.3208961,52.9581538 C85.8604548,50.9780903 86.2924159,49.6817558 86.2924159,48.8168779 C86.2924159,47.808574 85.6806019,46.6568443 84.5649642,46.0807829 C84.1333958,45.8646617 83.8094249,45.8646617 83.629572,45.8646617 C82.5139343,45.8646617 81.3625616,46.6929954 81.0385908,46.9448749 C80.4986394,47.4132686 79.922953,48.1335418 79.887218,48.6738449 C79.887218,49.1418456 80.3549141,49.3214227 80.534767,49.3214227 C80.8948655,49.3214227 81.0743257,48.9976338 81.1104534,48.8891802 C81.1469737,48.8538149 81.182316,48.6738449 81.2184437,48.4938748 L81.4344242,48.0612394 Z" id="Fill-15"></path>
                    <path d="M108.403698,46.413577 C107.218126,46.4500083 105.707719,46.4500083 105.455854,46.3415063 C105.276566,46.2686438 105.240473,46.0872792 105.240473,45.9783813 C105.240473,45.8334481 105.276566,45.6885149 105.312659,45.5427897 C105.384845,45.0347315 105.455854,44.5631046 105.527647,44.0550464 C105.707719,42.9664634 105.862683,42.260805 106.042362,41.1726179 C106.078455,40.9183908 106.150249,40.6645597 106.186342,40.4111246 C106.222042,40.1929328 106.293835,40.0115683 106.293835,39.7937725 C106.293835,39.3221456 106.042362,39.2857143 105.862683,39.2857143 C105.611602,39.2857143 103.762236,40.0523555 103.51037,40.1600654 C103.151403,40.3057906 103.07961,40.6685196 103.07961,40.8138488 C103.07961,41.0308527 103.115703,41.06768 103.223981,41.431201 C103.295383,41.8291733 103.295383,41.9741065 103.295383,42.3744548 C103.295383,43.1747554 103.012132,44.9990922 102.975255,45.0711628 C102.939554,45.3974605 102.903461,46.0872792 102.364422,46.0872792 C102.18435,46.0872792 102.005455,46.0508479 101.824991,46.0140207 C101.537425,45.9783813 101.250252,45.9783813 100.926593,45.942346 C100.782222,45.942346 100.639419,45.9055187 100.495048,45.9055187 C99.8838235,45.9055187 99.8477306,46.7042354 99.8477306,46.7398747 C99.8120301,46.8495646 99.8120301,46.9580665 99.8120301,47.0673604 C99.8120301,47.2118976 99.919524,47.4296934 100.24279,47.4296934 C100.387162,47.4296934 100.530356,47.3940541 100.674728,47.4296934 C100.961901,47.4296934 101.250252,47.4657287 101.537425,47.502556 C102.040764,47.502556 102.220443,47.4296934 102.471916,47.6474892 C102.580195,47.7563871 102.616288,47.9013203 102.616288,47.9737869 C102.616288,48.1191161 102.580195,48.2644453 102.54371,48.4458098 C102.32833,50.3323175 102.076857,52.2924797 101.861084,54.2158146 C101.789683,54.7234769 101.75359,55.2683624 101.681404,55.8116639 C101.57391,56.4658433 101.502117,57.0824034 101.502117,57.7361868 C101.502117,57.8446887 101.502117,59.4769693 102.112557,60.3845838 C102.939554,61.6541353 104.26989,61.6541353 104.593156,61.6541353 C104.845414,61.6541353 107.289527,61.6541353 108.907429,59.7315924 C109.66224,58.8608052 109.770519,58.0260532 109.770519,57.7361868 C109.770519,57.5912536 109.84192,57.1188347 109.375067,56.8285723 C109.230303,56.7557097 109.123593,56.7557097 109.086716,56.7557097 C109.051408,56.7557097 108.76345,56.792141 108.692049,57.0459721 C108.655563,57.1188347 108.655563,57.1909053 108.619863,57.2633719 C108.619863,57.3730618 108.584162,57.4815637 108.584162,57.5912536 C108.475884,57.9175513 108.367997,58.243453 108.224018,58.5705427 C107.792473,59.4769693 107.145941,59.8769216 106.822674,59.9850275 C106.606509,60.0578901 106.391129,60.0578901 106.319336,60.0578901 C106.139656,60.0578901 105.455854,60.0578901 104.845414,59.5137966 C104.09021,58.8608052 104.054117,58.3167116 104.054117,56.8285723 C104.054117,55.7764206 104.126303,54.7603042 104.26989,53.7077564 C104.377383,52.7272793 104.48527,51.6759196 104.629641,50.6954425 C104.664949,50.150953 104.773228,49.679326 104.845414,49.0991972 C104.881114,48.6996409 104.845414,47.7563871 105.347967,47.7563871 C105.420545,47.7563871 105.492339,47.7563871 105.564132,47.7924224 C106.24715,47.7924224 106.965869,47.9013203 107.648887,47.9737869 C108.008638,47.9737869 108.332297,48.0462535 108.727749,48.0462535 C109.195387,48.0462535 109.302881,47.6839205 109.44686,47.2847602 C109.589662,46.9216352 109.626932,46.9216352 109.626932,46.6674081 C109.626932,46.4860436 109.518653,46.3050751 109.338581,46.3050751 C109.230303,46.3050751 109.086716,46.3415063 108.979222,46.3771457 C108.76345,46.413577 108.584162,46.413577 108.403698,46.413577" id="Fill-16"></path>
                    <path d="M171.686951,42.2453379 C171.005457,44.6680294 168.559865,46.4647472 165.883831,45.6428612 C164.387927,45.184024 163.035163,43.9257697 162.36468,42.6651502 C162.159406,42.2796324 161.675714,42.4538644 161.763408,42.8823489 C162.166091,44.8611825 162.107498,46.9160947 160.479855,48.1349301 C158.537617,49.5898852 156.005118,49.0364425 154.620895,47.275596 C153.304703,45.5998944 154.108103,42.6340092 155.738104,41.4139913 C155.998826,41.2184731 155.95085,40.9397808 155.639007,40.844781 L147.328162,38.2943719 C146.195222,37.9754723 145.007229,38.6144542 144.645836,39.7382898 L143.101562,44.8067842 L142.984375,45.1832357 C141.858514,48.8831026 146.985645,50.8512931 148.52874,47.8321922 C149.050576,48.6769413 149.270793,49.95254 148.969174,51.0803174 C147.848425,55.2717393 143.110214,54.9082961 141.039384,51.9901079 C140.786134,51.6325776 140.323285,51.8757928 140.472718,52.2885097 C141.747619,55.8129621 140.585186,58.0078118 138.838391,59.6500072 C137.349957,61.0501699 135.474571,61.9079272 133.962543,63.2517208 C133.760022,62.459399 133.431662,61.7009775 133.120998,60.9464979 C131.55195,57.1472951 130.417437,53.6244194 134.680609,50.510713 C135.034529,50.2525185 134.786785,49.7921047 134.377417,49.9458387 C133.209478,50.3849664 131.678968,50.3609208 130.662429,49.9631831 C126.972216,48.5232072 127.418156,43.6825545 130.486255,42.2957942 C130.083572,45.6645416 135.430921,46.9105761 136.559534,43.2126801 L136.672396,42.8334693 L138.21785,37.7657632 C138.544636,36.6304961 137.91623,35.4353122 136.799414,35.0631968 L128.488176,32.513182 C128.175939,32.4173938 127.981283,32.6204017 128.089032,32.9294466 C128.760302,34.8558529 127.773256,37.7657632 125.747257,38.4149941 C123.618227,39.0985195 121.211173,38.1359076 120.411312,35.8405394 C119.742402,33.9157099 120.83877,32.1789089 122.276081,30.7653437 C122.587138,30.4594523 122.283946,30.0435819 121.898172,30.2481665 C120.639788,30.9163185 118.816309,31.2001352 117.320798,30.7412981 C114.644764,29.9205946 113.61918,27.0583813 114.403705,24.6719553 C115.085199,22.2488697 117.530004,20.4529402 120.206825,21.2740379 C121.702336,21.732875 123.055493,22.9919177 123.725976,24.252143 C123.930857,24.638055 124.414155,24.4630347 124.327248,24.0349444 C123.924565,22.056505 123.983159,20.0015927 125.610801,18.781969 C127.553039,17.327408 130.085538,17.8800623 131.469368,19.6420915 C132.785953,21.317793 131.98216,24.283284 130.352552,25.5036962 C130.091044,25.6992144 130.139413,25.9767241 130.451649,26.0725123 L138.762494,28.6229213 C139.89504,28.941821 141.082641,28.3032332 141.444427,27.1797919 L142.989094,22.1109032 L143.106281,21.7340576 C144.232142,18.0341906 139.105011,16.065606 137.56113,19.0854952 C137.040473,18.240352 136.81947,16.9655416 137.121482,15.8365816 C138.242231,11.6459481 142.980836,12.0089971 145.050879,14.9271854 C145.304522,15.2847157 145.766585,15.0418946 145.617545,14.6295719 C144.343037,11.1043311 145.50547,8.90908726 147.251872,7.26728608 C148.739519,5.86751754 150.615692,5.00976019 152.12536,3.66478405 C152.328668,4.45789425 152.657421,5.21631573 152.968478,5.97040112 C154.538706,9.76960394 155.673219,13.293268 151.410047,16.4065803 C151.05652,16.6647747 151.303871,17.1255828 151.713239,16.9714545 C152.881178,16.5327211 154.411295,16.5567667 155.427834,16.9537159 C159.11844,18.3944802 158.672107,23.2351329 155.604008,24.621499 C156.007084,21.2523574 150.659342,20.0067172 149.531122,23.7050074 L149.41826,24.0834297 L147.87202,29.1523184 C147.546413,30.2864029 148.173639,31.4823753 149.291242,31.8540964 L157.602087,34.403717 C157.914324,34.4998994 158.109373,34.2961032 158.001624,33.9882408 C157.330748,32.0614403 158.3174,29.1519242 160.343399,28.501905 C162.473216,27.8183796 164.879483,28.7813857 165.679344,31.077148 C166.348254,33.0015834 165.251886,34.7383843 163.813789,36.1519495 C163.503125,36.4574467 163.807497,36.8733171 164.191697,36.6691267 C165.450475,36.0005806 167.273953,35.717158 168.769858,36.1763893 C171.445892,36.997487 172.471082,39.8589119 171.686951,42.2453379 M163.472452,50.4823313 C159.10625,55.8165098 153.350713,59.1781618 147.27586,60.4975156 C151.402969,58.5856943 155.256772,55.3245607 158.39251,51.1016037 C160.956075,50.9269776 163.30139,48.9394718 163.398915,45.8640017 C164.160238,46.6374024 164.885775,47.1340818 165.632548,47.4348487 C164.978188,48.5050744 164.256583,49.5244497 163.472452,50.4823313 M140.808549,60.7147142 C142.060642,59.3996965 143.073642,57.504037 142.632027,55.3265317 C147.269962,58.1765251 151.743126,53.8163899 150.901188,49.5086821 C150.504404,47.4793922 149.113102,45.9519061 147.490572,45.1796879 C147.996679,46.2566149 147.075305,47.7021095 145.731193,47.3114672 C144.825549,47.0469658 144.411069,46.1848723 144.640724,45.4000401 L144.786618,44.9242529 L146.216064,40.2314214 C146.297073,39.9791398 146.56094,39.8368372 146.811831,39.9010902 L153.414418,41.9268324 C150.989275,45.4449778 152.20047,49.2288072 155.912312,50.6888868 C151.620827,56.3880852 146.175167,59.9160854 140.808549,60.7147142 M122.873814,16.2796511 C127.240409,10.9458668 132.994766,7.58421481 139.070405,6.26525521 C134.895714,8.19915115 130.99944,11.5138945 127.844827,15.8078057 C125.224634,15.914237 122.790446,17.9190872 122.691741,21.0536857 C121.974855,20.3248285 121.289035,19.8415516 120.586699,19.5368427 C121.275272,18.38975 122.038954,17.2994205 122.873814,16.2796511 M145.414237,6.06697766 C144.101978,7.38593726 143.001285,9.33757175 143.458629,11.5911557 C138.820694,8.74037396 134.34753,13.1005091 135.189468,17.408217 C135.586646,19.4379011 136.977554,20.964993 138.599691,21.7379995 C138.093977,20.6606783 139.015351,19.2155779 140.359463,19.6066144 C141.265107,19.8703274 141.679587,20.7324209 141.449539,21.5176473 L141.304038,21.9934346 L139.874198,26.6854776 C139.79319,26.9377592 139.529716,27.0808502 139.279218,27.016203 L132.676238,24.9900666 C135.077786,21.50661 133.913387,17.7618054 130.286093,16.2721615 C134.566174,10.5004321 140.025598,6.91014998 145.414237,6.06697766 M171.942954,35.7021788 C172.458499,28.8144976 170.517047,21.2153036 164.844484,14.9941977 C164.706849,14.841252 164.562528,14.8337623 164.712354,15.0245503 C168.994795,20.9657813 170.517047,27.9744788 169.872911,34.6284053 C169.006199,34.3824308 168.037636,34.3556259 166.832339,34.5992353 C168.334143,32.2053196 167.750173,29.5082719 166.071803,27.8577986 C165.988828,21.9055302 164.243606,16.5390281 161.056353,12.1453868 C160.293457,11.0940822 158.615873,9.55989488 157.928874,9.12983364 C157.824664,9.06558067 157.798316,9.12392079 157.87146,9.19645174 C161.508192,12.8190575 163.816148,19.1304329 163.857439,26.5392332 L163.794913,26.5203121 C159.683927,25.3274932 156.309883,27.8073423 156.361398,32.2581411 L149.759204,30.2320047 C149.515392,30.1452829 149.376576,29.8788105 149.449327,29.6237696 L150.880346,24.9321207 L151.024667,24.4555451 C151.272018,23.6758373 152.095474,23.1933488 152.993646,23.4834726 C154.326747,23.9135339 154.28349,25.6286544 153.263805,26.2376779 C155.039701,26.5073038 157.044858,26.0224501 158.504978,24.5631589 C161.604144,21.4648258 160.327276,15.3399023 154.89302,15.1002348 C156.933963,13.0882892 156.701555,10.1046654 156.006298,8.15066578 C155.456934,6.60465276 153.40734,1.69422844 153.24375,0 C152.194572,1.27402195 147.984881,4.0633101 146.533413,5.1154031 C135.007789,3.76214897 123.846702,9.22010314 118.112007,19.0910139 L118.026673,19.0929848 C116.215385,19.1331922 113.378908,20.1939574 112.216868,24.001044 C111.059154,27.8045829 112.81932,30.2765482 114.297922,31.326276 L114.380503,31.3846161 C113.950293,38.1859697 115.919272,45.6440437 121.502568,51.7673905 C121.63981,51.9195479 121.785311,51.9274317 121.635091,51.7374321 C117.39866,45.8600598 115.863824,38.9384783 116.454479,32.3503815 C117.260238,32.538016 118.161163,32.5399869 119.257531,32.3188464 C117.679831,34.8341725 118.405368,37.6845601 120.283114,39.303104 C120.436873,45.0953313 122.17541,50.3211076 125.291092,54.6158072 C126.053988,55.6679002 127.731179,57.2016933 128.418965,57.6313604 C128.521995,57.6956133 128.548736,57.6376674 128.475985,57.5651365 C124.876219,53.980373 122.578487,47.7608438 122.491186,40.4509852 C126.512905,41.510962 129.779593,39.0389968 129.728865,34.6591521 L136.331452,36.6852885 C136.575264,36.7724045 136.71408,37.0388769 136.641329,37.2931294 L135.21031,41.9855667 L135.065203,42.4621424 C134.818638,43.2414559 133.994396,43.7239444 133.096617,43.4334264 C131.763909,43.0033652 131.806773,41.2886389 132.826457,40.6792212 C131.050955,40.4099894 129.045404,40.8948431 127.586071,42.3541343 C124.486512,45.4528616 125.76338,51.577391 131.196849,51.8174527 C129.155906,53.8286098 129.389101,56.8134162 130.083572,58.7666275 C130.633722,60.3118521 132.68253,65.2230648 132.846906,66.9172932 C133.927151,65.6046407 138.363744,62.6840873 139.680722,61.7112264 L139.772741,61.6422432 C151.253536,63.0065347 162.37923,57.6092857 168.146171,47.8223374 C169.959425,47.7513832 172.728658,46.6657841 173.873395,42.915855 C174.991784,39.2412162 173.386951,36.8094584 171.942954,35.7021788" id="Fill-17"></path>
                </g>
                <path d="M4.95183271,73.0479764 L6.51212993,73.0479764 L2.72996945,77.1796434 L7.44206708,81.7669173 L5.73198132,81.7669173 L1.28201363,77.4604969 L1.28201363,81.7669173 L0.0337758459,81.7669173 L0.0337758459,73.0479764 L1.28201363,73.0479764 L1.28201363,77.0360961 L4.95183271,73.0479764 Z M11.1681303,72.9231526 C12.5162338,72.9231526 13.6385964,73.3496296 14.5352517,74.2025963 C15.431907,75.0555631 15.8802279,76.1248761 15.8802279,77.4105674 C15.8802279,78.6962588 15.4277462,79.7603708 14.5227693,80.6029356 C13.6177924,81.4455003 12.4767064,81.8667763 11.0994772,81.8667763 C9.78466017,81.8667763 8.68934247,81.4455003 7.81349125,80.6029356 C6.93764003,79.7603708 6.49972098,78.7045803 6.49972098,77.4355322 C6.49972098,76.1331976 6.94076059,75.0555631 7.82285303,74.2025963 C8.70494547,73.3496296 9.82002674,72.9231526 11.1681303,72.9231526 Z M11.2180598,74.1089785 C10.2194646,74.1089785 9.39875645,74.4210348 8.75591077,75.0451568 C8.1130651,75.6692788 7.79164709,76.4660627 7.79164709,77.4355322 C7.79164709,78.375876 8.11410529,79.1580972 8.75903137,79.7822192 C9.40395745,80.4063412 10.2111431,80.7183976 11.1806127,80.7183976 C12.154243,80.7183976 12.9666296,80.4001001 13.6177969,79.7634957 C14.2689642,79.1268912 14.594543,78.3342681 14.594543,77.3856027 C14.594543,76.4619021 14.2689642,75.6848819 13.6177969,75.0545186 C12.9666296,74.4241554 12.1667253,74.1089785 11.2180598,74.1089785 Z M17.4655633,81.7669173 L17.4655633,73.0479764 L19.6499794,73.0479764 C20.5320719,73.0479764 21.2321182,73.2664158 21.7501395,73.7033012 C22.2681608,74.1401866 22.5271675,74.7310133 22.5271675,75.4757989 C22.5271675,75.9834181 22.4002646,76.4223773 22.146455,76.7926897 C21.8926454,77.1630021 21.5285797,77.4396921 21.0542469,77.6227679 C21.3330214,77.8058436 21.6055506,78.0554887 21.8718427,78.3717105 C22.1381348,78.6879323 22.5126023,79.2392319 22.9952567,80.0256256 C23.2989961,80.5207624 23.5424,80.8931496 23.7254758,81.1427984 L24.1873238,81.7669173 L22.7019208,81.7669173 L22.3212083,81.1927279 C22.3087259,81.1719238 22.2837613,81.1365575 22.246314,81.0866277 L22.0029077,80.7433623 L21.6159539,80.106761 L21.1977943,79.4264715 C20.9398239,79.0686415 20.7037012,78.7836301 20.4894193,78.5714286 C20.2751375,78.3592271 20.0816625,78.2063195 19.9089888,78.1127012 C19.736315,78.0190829 19.4461026,77.9722744 19.0383429,77.9722744 L18.7138011,77.9722744 L18.7138011,81.7669173 L17.4655633,81.7669173 Z M19.0882724,74.1089785 L18.7138011,74.1089785 L18.7138011,76.8613428 L19.1881315,76.8613428 C19.8205751,76.8613428 20.2543334,76.807253 20.4894193,76.6990719 C20.7245053,76.5908907 20.9075784,76.4275813 21.038644,76.2091386 C21.1697096,75.9906959 21.2352414,75.742091 21.2352414,75.4633165 C21.2352414,75.1887028 21.1624283,74.9400979 21.0167998,74.7174944 C20.8711713,74.4948909 20.6662544,74.3378226 20.4020427,74.2462847 C20.1378311,74.1547468 19.699912,74.1089785 19.0882724,74.1089785 Z M29.6609199,73.0479764 L30.9029165,73.0479764 L27.220615,81.8043644 L26.9397615,81.8043644 L23.1825658,73.0479764 L24.4370448,73.0479764 L27.0583441,79.1705827 L29.6609199,73.0479764 Z M31.8828566,73.0479764 L36.8258782,73.0479764 L36.8258782,74.158908 L33.1310943,74.158908 L33.1310943,76.8176545 L36.7010544,76.8176545 L36.7010544,77.9348273 L33.1310943,77.9348273 L33.1310943,80.6435033 L36.9444608,80.6435033 L36.9444608,81.7544349 L31.8828566,81.7544349 L31.8828566,73.0479764 Z M45.2203507,73.0479764 L46.4061766,73.0479764 L46.4061766,81.7669173 L45.3326921,81.7669173 L39.5034216,75.0576392 L39.5034216,81.7669173 L38.3300781,81.7669173 L38.3300781,73.0479764 L39.3411507,73.0479764 L45.2203507,79.8134252 L45.2203507,73.0479764 Z M55.4622885,73.0479764 L56.7042851,73.0479764 L53.0219837,81.8043644 L52.7411302,81.8043644 L48.9839344,73.0479764 L50.2384134,73.0479764 L52.8597128,79.1705827 L55.4622885,73.0479764 Z M59.4442405,72.9980469 L60.3242481,72.9980469 L64.2249912,81.7669173 L62.9455475,81.7669173 L61.7846863,79.1830651 L58.0774201,79.1830651 L56.9789709,81.7669173 L55.6995271,81.7669173 L59.4442405,72.9980469 Z M61.2729088,78.0721335 L59.8686413,74.9140919 L58.5642328,78.0721335 L61.2729088,78.0721335 Z M65.2049313,73.0479764 L70.1479529,73.0479764 L70.1479529,74.158908 L66.4531691,74.158908 L66.4531691,76.8176545 L70.0231291,76.8176545 L70.0231291,77.9348273 L66.4531691,77.9348273 L66.4531691,80.6435033 L70.2665355,80.6435033 L70.2665355,81.7544349 L65.2049313,81.7544349 L65.2049313,73.0479764 Z M71.6147057,73.0479764 L72.8629435,73.0479764 L72.8629435,80.6310209 L76.7886513,80.6310209 L76.7886513,81.7669173 L71.6147057,81.7669173 L71.6147057,73.0479764 Z M75.8775112,73.035494 L83.1609786,73.035494 L83.1609786,74.1464256 L80.1215196,74.1464256 L80.1215196,81.7669173 L78.8670407,81.7669173 L78.8670407,74.1464256 L75.8775112,74.1464256 L75.8775112,73.035494 Z M85.8634868,72.9980469 L86.7434945,72.9980469 L90.6442376,81.7669173 L89.3647938,81.7669173 L88.2039327,79.1830651 L84.4966665,79.1830651 L83.3982172,81.7669173 L82.1187735,81.7669173 L85.8634868,72.9980469 Z M87.6921552,78.0721335 L86.2878877,74.9140919 L84.9834792,78.0721335 L87.6921552,78.0721335 Z M91.63666,73.0479764 L92.8848978,73.0479764 L92.8848978,81.6545759 C92.8848978,82.4576129 92.802723,83.0515601 92.6383708,83.4364353 C92.4740187,83.8213106 92.2087708,84.1292061 91.8426192,84.3601313 C91.4764677,84.5910564 91.0354281,84.7065173 90.5194872,84.7065173 C90.4404317,84.7065173 90.3052073,84.694035 90.1138099,84.6690701 L89.8828859,83.508209 L90.2011866,83.508209 C90.5590165,83.508209 90.8325859,83.4645211 91.0219029,83.377144 C91.2112199,83.289767 91.361007,83.1358192 91.4712685,82.9152961 C91.5815301,82.6947729 91.63666,82.2266885 91.63666,81.5110285 L91.63666,73.0479764 Z M97.6220336,72.9980469 L98.5020412,72.9980469 L102.402784,81.7669173 L101.123341,81.7669173 L99.9624794,79.1830651 L96.2552132,79.1830651 L95.156764,81.7669173 L93.8773203,81.7669173 L97.6220336,72.9980469 Z M99.450702,78.0721335 L98.0464344,74.9140919 L96.742026,78.0721335 L99.450702,78.0721335 Z M101.360579,73.035494 L108.644047,73.035494 L108.644047,74.1464256 L105.604588,74.1464256 L105.604588,81.7669173 L104.350109,81.7669173 L104.350109,74.1464256 L101.360579,74.1464256 L101.360579,73.035494 Z M113.449909,81.7669173 L113.449909,73.0479764 L115.634325,73.0479764 C116.516418,73.0479764 117.216464,73.2664158 117.734485,73.7033012 C118.252506,74.1401866 118.511513,74.7310133 118.511513,75.4757989 C118.511513,75.9834181 118.38461,76.4223773 118.130801,76.7926897 C117.876991,77.1630021 117.512925,77.4396921 117.038593,77.6227679 C117.317367,77.8058436 117.589896,78.0554887 117.856188,78.3717105 C118.12248,78.6879323 118.496948,79.2392319 118.979602,80.0256256 C119.283342,80.5207624 119.526746,80.8931496 119.709821,81.1427984 L120.171669,81.7669173 L118.686266,81.7669173 L118.305554,81.1927279 C118.293071,81.1719238 118.268107,81.1365575 118.23066,81.0866277 L117.987253,80.7433623 L117.6003,80.106761 L117.18214,79.4264715 C116.924169,79.0686415 116.688047,78.7836301 116.473765,78.5714286 C116.259483,78.3592271 116.066008,78.2063195 115.893334,78.1127012 C115.720661,78.0190829 115.430448,77.9722744 115.022689,77.9722744 L114.698147,77.9722744 L114.698147,81.7669173 L113.449909,81.7669173 Z M115.072618,74.1089785 L114.698147,74.1089785 L114.698147,76.8613428 L115.172477,76.8613428 C115.804921,76.8613428 116.238679,76.807253 116.473765,76.6990719 C116.708851,76.5908907 116.891924,76.4275813 117.02299,76.2091386 C117.154055,75.9906959 117.219587,75.742091 117.219587,75.4633165 C117.219587,75.1887028 117.146774,74.9400979 117.001145,74.7174944 C116.855517,74.4948909 116.6506,74.3378226 116.386388,74.2462847 C116.122177,74.1547468 115.684258,74.1089785 115.072618,74.1089785 Z M126.400449,73.0479764 L127.910817,73.0479764 L124.690364,77.1546787 L124.690364,81.7669173 L123.41092,81.7669173 L123.41092,77.1546787 L120.190466,73.0479764 L121.700834,73.0479764 L124.035039,76.0562294 L126.400449,73.0479764 Z" id="KORVEN-VAELTAJAT-RY"></path>
            </g>
        </g>
    </g>
</svg>